<?xml version="1.0" encoding="UTF-8"?>
<svg id="Camada_1" data-name="Camada 1" xmlns="http://www.w3.org/2000/svg" xmlns:xlink="http://www.w3.org/1999/xlink" viewBox="0 0 2000 925.5">
  <defs>
    <style>
      .cls-1 {
        fill: none;
      }

      .cls-2 {
        clip-path: url(#clippath);
      }

      .cls-3 {
        fill: #d1d1d1;
      }
    </style>
    <clipPath id="clippath">
      <rect class="cls-1" x="63" y="209.5" width="1874" height="434.12"/>
    </clipPath>
  </defs>
  <g class="cls-2">
    <g id="Grupo_631" data-name="Grupo 631">
      <path id="Caminho_482" data-name="Caminho 482" class="cls-3" d="M63,430.85c-1.01-75.89,33.82-133.77,91.94-178.08,67.27-51.27,141.66-54.96,217.51-21.96,67.99,28.69,116.23,90.59,127.45,163.53,9.8,53.95-3.37,109.54-36.32,153.37-33.47,49.32-85.34,83.14-143.96,93.89-3.93,1.09-7.95,1.76-12.02,2.02-8.03-.12-16.04-1.04-24.05-1.62,5.9-5.21,11.58-10.66,17.71-15.54,14.64-10.35,28.71-21.48,42.15-33.35,25.27-23.22,48.57-48.49,69.67-75.55,22.29-33.15,28.22-74.66,16.11-112.72-4.72-18.19-6.75-18.33-19.31-6.14-6.48,6.26-12.4,13.13-19.16,19.05-11.59,10.43-19.36,24.43-22.09,39.79-4.71,27.16-22.85,50.1-48.2,60.93-51.27,21.9-104.88,1.85-123.67-54.8-12.73-48.98,16.66-99.01,65.64-111.74,3.81-.99,7.67-1.73,11.57-2.22,6.48-.73,13.04-.27,19.36,1.35,6.7,2.43,13.18,5.44,19.36,8.99-3.83,5.93-8.13,11.54-12.86,16.77-23.66,22.56-47.95,44.41-71.58,67.01-15.49,14.75-14.95,15.77-.65,31.48,7.16,7.8,14.02,15.92,20.55,24.28,5.4,6.95,10.2,6.29,16.19,.66,16.05-15.08,32.49-29.76,48.65-44.75,29.96-27.79,59.6-55.95,89.92-83.36,7.16-4.65,9.19-14.23,4.54-21.39-.39-.6-.83-1.18-1.3-1.72-17.48-27.02-44.05-46.89-74.9-56.03-64.01-22.26-135.03,.37-174.36,55.56-26.63,32.21-35.19,75.69-22.75,115.59,13.26,44.86,37.05,85.89,69.39,119.69,16.61,16.84,34.93,31.97,52.31,48.06,2.68,2.91,5.11,6.04,7.27,9.35-3.53,1.37-7.25,2.17-11.04,2.35-39.95-4.9-77.73-20.93-109.01-46.26-38.21-31.4-65.06-74.47-76.41-122.61-2.53-14.48-3.74-29.15-3.63-43.85"/>
      <path id="Caminho_483" data-name="Caminho 483" class="cls-3" d="M1421.07,507.66c0-22.11-.07-44.21,0-66.31,0-4.88-1.01-11.08,1.48-14.35,4.59-7.42,11.17-13.41,18.98-17.28,9.2-2.62,18.85,2.38,22,11.41,4.6,15.16,11.44,9.11,19.71,4.75,9.2-4.99,18.71-9.38,28.47-13.17,22.03-8.54,47.05-2.39,62.6,15.39,9.35,9.44,12.6,6.46,21.18,.53,10.7-7.29,22.56-12.7,35.08-15.99,31.17-9.34,64.01,8.35,73.35,39.52,1.88,6.27,2.7,12.8,2.43,19.34-1.25,36.8,0,73.69-.45,110.52,.09,7.18-1.91,14.24-5.73,20.32-5.12,8.95-15.82,13.1-25.63,9.93-10.56-3.38-17.73-13.2-17.73-24.28-.12-22.94,.38-45.87-.38-68.81-.56-17.08-2.01-34.12-4.34-51.05-1.88-13.11-14.03-22.23-27.14-20.35-1.19,.17-2.36,.43-3.51,.77-14.63,3.56-25.89,15.25-28.9,30-6.95,32.49-2.6,65.2-4.36,97.76-.14,8.78-2.03,17.45-5.57,25.48-3.01,8.1-11.46,12.83-19.94,11.16-10.89-1.36-19.91-9.13-22.87-19.7-.9-5.66-1.19-11.4-.85-17.12-.11-27.83-.08-55.66-.09-83.51,0-4.05,.12-8.19-.13-12.28-1.24-19.56-10.67-31.03-26.71-32.69-16.19-.68-30.68,9.98-34.85,25.63-3.58,14.18-5.74,28.68-6.45,43.29-1.08,19.59-.23,39.29-.3,58.93,.24,5.73-.02,11.46-.77,17.15-1.71,9.61-13.68,21.29-21.59,20.63-10.19,.28-19.43-5.98-22.94-15.56-2.35-6.89-3.68-14.09-3.95-21.37-.49-22.94-.19-45.87-.19-68.81"/>
      <path id="Caminho_484" data-name="Caminho 484" class="cls-3" d="M624.48,477.14c0,25.38,.5,50.77-.16,76.13-.47,17.81-5.4,22.02-22.09,22.07-12.06,1.84-23.33-6.44-25.17-18.49-.36-2.37-.34-4.78,.08-7.14,.94-62.06,2.04-124.12,2.95-186.18,.24-16.38-.08-32.74,.08-49.12,.09-8.84-1.78-19.97,9.44-22.8,10.64-2.7,24.19-6.54,32.01,4.05,7.08,9.63,12.67,6.75,20.24,3.05,22.39-12.19,48.4-15.99,73.34-10.71,45.67,10.24,70.76,41.12,84.77,82.66,13.59,38.79,4.41,81.91-23.8,111.8-29.24,34.86-77.2,47.64-119.91,31.95-8.28-3.35-17.2-6.75-15.5-18.89,2.29-16.39,8.31-23.25,22.35-23.91,7.34-.35,14.73,.31,22.1,.42,46.72,.69,73.23-25.55,72.77-71.67,1.09-27.03-15.03-51.79-40.18-61.75-30.73-13.98-74.05,.51-84.08,32.03-4.49,13-7.4,26.49-8.66,40.18-1.43,22.02-.39,44.18-.39,66.28l-.2,.04Z"/>
      <path id="Caminho_485" data-name="Caminho 485" class="cls-3" d="M1003.18,575.9c-28.44-1.9-56.91-3.37-85.29-5.8-33.19-2.85-55.31-23.76-71.89-49.7-35.31-54.37-25.5-126.39,23.07-169.33,17.96-17.15,41.81-26.78,66.65-26.89,25.2-2.25,50.53,2.71,73.03,14.29,32.43,18.59,53.9,51.71,57.62,88.91,3.91,28.14,3.21,56.89,5.3,85.33,1.2,16.19-6.1,31.57-1.94,48.43,1.9,7.72-8.26,13.21-17.39,13.32-16.35,.19-32.72,0-49.07,0,0,.46,0,.93-.09,1.35m20.24-123.96c4.01-41.92-26.73-79.16-68.65-83.16-2.42-.23-4.85-.35-7.28-.35-42.76,.78-77.12,35.48-77.47,78.25-2.12,44.35,32.11,82.02,76.46,84.15,.19,0,.38,.02,.56,.03,42.8-.87,76.89-36.09,76.37-78.9"/>
      <path id="Caminho_486" data-name="Caminho 486" class="cls-3" d="M1297.74,453.26c0,26.98,.23,53.96-.07,80.95,.69,26.43-10.24,51.84-29.91,69.52-15.52,12.11-34.47,18.98-54.14,19.64-17.1,1.71-34.32,1.82-51.44,.32-12.86-.5-22.87-11.33-22.37-24.19,.16-4.16,1.44-8.2,3.69-11.7,4.13-4.7,10.01-7.47,16.26-7.68,17.12-.98,34.36,.36,51.5-.55,16.78-.9,32.68-5.05,39.41-23.35,1.79-4.5,2.67-9.32,2.59-14.17-.36-6.75-3.58-10.56-11.47-7.39-9.81,3.94-19.86,7.31-29.9,10.63-40.47,13.33-90.24-15.8-107.93-43.7-29.99-47.3-20.45-113.33,15.38-143.8,10.51-8.94,18.73-11.41,25.92-6.07,8.89,7.7,11.3,20.5,5.83,30.91-6.18,11.47-13.94,22.17-19.4,33.94-10.53,27.6-1.04,58.84,23.07,75.92,22.24,16.97,53.37,15.84,74.32-2.7,16.75-12.39,26.18-32.35,25.11-53.16-.54-25.34-.34-50.71,0-76.06,.24-17.03,7.07-25.48,19.51-25.63,14.27-.26,23.45,8.39,23.83,25.22,.7,31.03,.2,62.15,.2,93.24l.03-.13Z"/>
      <path id="Caminho_487" data-name="Caminho 487" class="cls-3" d="M1852.48,525.32c-13.07,0-26.17-.36-39.23,.11-12.48,.45-15.49,4.75-13.37,17.16,4.59,20.57,22.15,35.69,43.17,37.18,14.8,1.68,29.62-2.9,40.89-12.63,7.43-6.34,15.07-12.48,23.02-18.16,5.71-5.28,14.54-5.21,20.17,.15,3.85,5.04,5.47,11.44,4.47,17.7-1.67,7-5.33,13.37-10.55,18.33-40.47,37.5-102.68,38.52-144.36,2.36-24.72-23.65-35.78-58.21-29.37-91.82,2.23-17.79,8.54-34.82,18.46-49.76,33.06-41.6,92.76-50.33,136.34-19.94,20.56,14.28,33.31,37.32,34.5,62.33,2.29,20.59-5.23,29.94-25.8,32.82-19.28,2.7-38.77,3.91-58.17,5.77l-.16-1.62m-9.34-29.24v.26h26.78c18.89-.57,21.59-4.49,14.53-21.82-1.72-4.55-3.89-8.92-6.48-13.05-10.65-14.76-29.57-21.02-46.92-15.54-17.18,5.73-29.48,20.9-31.52,38.9,0,6.57,2.15,11.16,9.52,11.22,11.36,.09,22.72,0,34.08,0"/>
      <path id="Caminho_488" data-name="Caminho 488" class="cls-3" d="M1339.03,557.93c14.41,.95,26.03,12.16,27.5,26.52,.27,14.41-10.07,26.83-24.28,29.18-15.76,.5-28.94-11.88-29.43-27.64-.02-.51-.02-1.01,0-1.52-.26-14.4,11.2-26.29,25.6-26.55,.21,0,.42,0,.63,0"/>
    </g>
  </g>
</svg>